<svg xmlns="http://www.w3.org/2000/svg" xmlns:xlink="http://www.w3.org/1999/xlink" width="2000" zoomAndPan="magnify" viewBox="0 0 1500 1499.999933" height="2000" preserveAspectRatio="xMidYMid meet" version="1.0"><defs><clipPath id="a51faa5097"><path d="M 488.5 494.121094 L 697.75 494.121094 L 697.75 749.871094 L 488.5 749.871094 Z M 488.5 494.121094 " clip-rule="nonzero"/></clipPath></defs><path fill="#00bcd4" d="M 1302.476562 1148.019531 L 1029.207031 874.753906 C 993.5625 934.160156 934.160156 993.5625 874.753906 1029.207031 L 1148.019531 1302.476562 C 1195.542969 1350 1266.832031 1350 1302.476562 1302.476562 C 1350 1266.832031 1350 1195.542969 1302.476562 1148.019531 Z M 1302.476562 1148.019531 " fill-opacity="1" fill-rule="nonzero"/><path fill="#00bcd4" d="M 1041.089844 601.484375 C 1041.089844 351.980469 839.109375 150 601.484375 150 C 351.980469 150 150 351.980469 150 601.484375 C 150 839.109375 351.980469 1041.089844 601.484375 1041.089844 C 839.109375 1041.089844 1041.089844 839.109375 1041.089844 601.484375 Z M 601.484375 934.160156 C 411.386719 934.160156 256.929688 779.703125 256.929688 601.484375 C 256.929688 411.386719 411.386719 256.929688 601.484375 256.929688 C 779.703125 256.929688 934.160156 411.386719 934.160156 601.484375 C 934.160156 779.703125 779.703125 934.160156 601.484375 934.160156 Z M 601.484375 934.160156 " fill-opacity="1" fill-rule="nonzero"/><path fill="#00bcd4" d="M 340.097656 601.484375 L 411.386719 601.484375 C 411.386719 494.554688 494.554688 411.386719 601.484375 411.386719 L 601.484375 340.097656 C 447.03125 340.097656 340.097656 447.03125 340.097656 601.484375 Z M 340.097656 601.484375 " fill-opacity="1" fill-rule="nonzero"/><g clip-path="url(#a51faa5097)"><path fill="#00bcd4" d="M 692.105469 749.988281 L 651.398438 749.988281 C 648.183594 749.988281 645.585938 747.382812 645.585938 744.175781 L 645.585938 639.5 L 540.910156 639.5 L 540.910156 744.175781 C 540.910156 747.382812 538.3125 749.988281 535.097656 749.988281 L 494.390625 749.988281 C 491.175781 749.988281 488.574219 747.382812 488.574219 744.175781 L 488.574219 499.9375 C 488.574219 496.726562 491.175781 494.121094 494.390625 494.121094 L 535.097656 494.121094 C 538.3125 494.121094 540.910156 496.726562 540.910156 499.9375 L 540.910156 592.980469 L 645.585938 592.980469 L 645.585938 499.9375 C 645.585938 496.726562 648.183594 494.121094 651.398438 494.121094 L 692.105469 494.121094 C 695.320312 494.121094 697.921875 496.726562 697.921875 499.9375 L 697.921875 744.175781 C 697.921875 747.382812 695.320312 749.988281 692.105469 749.988281 Z M 692.105469 749.988281 " fill-opacity="1" fill-rule="nonzero"/></g></svg>